<?xml version="1.0" encoding="UTF-8"?>
<!DOCTYPE svg PUBLIC "-//W3C//DTD SVG 1.1//EN" "http://www.w3.org/Graphics/SVG/1.1/DTD/svg11.dtd">
<svg xmlns="http://www.w3.org/2000/svg" version="1.1" width="526px" height="374px" style="shape-rendering:geometricPrecision; text-rendering:geometricPrecision; image-rendering:optimizeQuality; fill-rule:evenodd; clip-rule:evenodd" xmlns:xlink="http://www.w3.org/1999/xlink">
<g><path style="opacity:0.936" fill="#ab773b" d="M 63.5,-0.5 C 196.833,-0.5 330.167,-0.5 463.5,-0.5C 478.397,5.06741 487.064,15.7341 489.5,31.5C 484.989,16.8232 475.323,7.32324 460.5,3C 329.167,2.33333 197.833,2.33333 66.5,3C 62.3634,3.93442 58.3634,5.26776 54.5,7C 49.309,10.3731 44.6424,14.2064 40.5,18.5C 45.4516,8.88182 53.1183,2.54849 63.5,-0.5 Z"/></g>
<g><path style="opacity:0.995" fill="#934f03" d="M 489.5,31.5 C 490.414,34.728 490.747,38.0613 490.5,41.5C 339.237,42.4984 187.903,42.8317 36.5,42.5C 36.5,39.5 36.5,36.5 36.5,33.5C 36.5,32.5 36.5,31.5 36.5,30.5C 37.7787,26.5798 39.1121,22.5798 40.5,18.5C 44.6424,14.2064 49.309,10.3731 54.5,7C 58.3634,5.26776 62.3634,3.93442 66.5,3C 197.833,2.33333 329.167,2.33333 460.5,3C 475.323,7.32324 484.989,16.8232 489.5,31.5 Z"/></g>
<g><path style="opacity:0.275" fill="#cba27e" d="M 40.5,18.5 C 39.1121,22.5798 37.7787,26.5798 36.5,30.5C 36.0687,25.793 37.402,21.793 40.5,18.5 Z"/></g>
<g><path style="opacity:0.954" fill="#e3a864" d="M 36.5,33.5 C 36.5,36.5 36.5,39.5 36.5,42.5C 187.903,42.8317 339.237,42.4984 490.5,41.5C 504.325,41.8525 514.825,47.8525 522,59.5C 522.483,60.448 522.649,61.448 522.5,62.5C 518.729,59.2316 515.062,55.7316 511.5,52C 507.01,49.4175 502.344,47.4175 497.5,46C 340.5,45.3333 183.5,45.3333 26.5,46C 13.1855,49.4841 4.18546,57.6508 -0.5,70.5C -0.5,69.1667 -0.5,67.8333 -0.5,66.5C 5.45625,49.8282 17.4562,41.4949 35.5,41.5C 35.1936,38.6146 35.5269,35.9479 36.5,33.5 Z"/></g>
<g><path style="opacity:1" fill="#de9440" d="M 522.5,62.5 C 524.163,64.4385 524.829,66.7718 524.5,69.5C 524.667,162.167 524.5,254.834 524,347.5C 523.209,348.745 522.709,350.078 522.5,351.5C 517.164,361.522 508.831,367.688 497.5,370C 452.167,370.667 406.833,370.667 361.5,370C 349.276,367.804 340.776,360.971 336,349.5C 335.329,348.748 334.496,348.414 333.5,348.5C 332.009,343.528 330.009,338.861 327.5,334.5C 328.954,332.737 328.62,331.403 326.5,330.5C 322.272,318.653 317.939,306.819 313.5,295C 308.032,283.578 303.032,272.078 298.5,260.5C 291.612,245.042 279.612,237.042 262.5,236.5C 247.43,236.949 235.597,243.283 227,255.5C 225.259,258.309 224.092,261.309 223.5,264.5C 215.215,286.402 206.381,308.069 197,329.5C 196.506,331.134 196.34,332.801 196.5,334.5C 196.573,336.027 195.906,337.027 194.5,337.5C 191.018,341.468 188.852,346.135 188,351.5C 182.228,361.465 173.728,367.632 162.5,370C 117.5,370.667 72.5,370.667 27.5,370C 15.5452,367.539 6.54522,361.039 0.5,350.5C 0.166667,350.5 -0.166667,350.5 -0.5,350.5C -0.5,257.167 -0.5,163.833 -0.5,70.5C 4.18546,57.6508 13.1855,49.4841 26.5,46C 183.5,45.3333 340.5,45.3333 497.5,46C 502.344,47.4175 507.01,49.4175 511.5,52C 515.062,55.7316 518.729,59.2316 522.5,62.5 Z"/></g>
<g><path style="opacity:0.377" fill="#d9b186" d="M 524.5,69.5 C 524.833,69.5 525.167,69.5 525.5,69.5C 525.5,162.833 525.5,256.167 525.5,349.5C 524.5,350.833 523.5,352.167 522.5,353.5C 522.5,352.833 522.5,352.167 522.5,351.5C 522.709,350.078 523.209,348.745 524,347.5C 524.5,254.834 524.667,162.167 524.5,69.5 Z"/></g>
<g><path style="opacity:1" fill="#09afee" d="M 183.5,252.5 C 165.337,265.474 145.337,269.307 123.5,264C 117.249,262.208 111.582,259.374 106.5,255.5C 85.4405,239.652 77.2739,218.652 82,192.5C 87.8454,171.989 100.679,157.822 120.5,150C 148.351,142.086 172.184,148.586 192,169.5C 207.165,191.298 208.498,213.965 196,237.5C 192.375,242.957 188.209,247.957 183.5,252.5 Z"/></g>
<g><path style="opacity:1" fill="#fe0200" d="M 421.5,253.5 C 390.375,273.077 361.375,270.411 334.5,245.5C 318.044,223.356 316.211,200.022 329,175.5C 350.218,147.067 377.384,139.567 410.5,153C 437.927,168.925 448.093,192.425 441,223.5C 437.253,235.338 430.753,245.338 421.5,253.5 Z"/></g>
<g><path style="opacity:1" fill="#b47731" d="M 298.5,260.5 C 297.5,259.833 296.5,259.167 295.5,258.5C 288.394,245.77 277.394,239.436 262.5,239.5C 244.367,240.054 231.367,248.387 223.5,264.5C 224.092,261.309 225.259,258.309 227,255.5C 235.597,243.283 247.43,236.949 262.5,236.5C 279.612,237.042 291.612,245.042 298.5,260.5 Z"/></g>
<g><path style="opacity:0.985" fill="#7f4504" d="M 295.5,258.5 C 279.888,242.145 262.222,239.978 242.5,252C 238.202,255.088 234.702,258.921 232,263.5C 223.808,281.894 216.141,300.56 209,319.5C 205.308,321.861 202.808,325.194 201.5,329.5C 243.161,330.5 284.828,330.833 326.5,330.5C 328.62,331.403 328.954,332.737 327.5,334.5C 283.833,334.5 240.167,334.5 196.5,334.5C 196.34,332.801 196.506,331.134 197,329.5C 206.381,308.069 215.215,286.402 223.5,264.5C 231.367,248.387 244.367,240.054 262.5,239.5C 277.394,239.436 288.394,245.77 295.5,258.5 Z"/></g>
<g><path style="opacity:0.996" fill="#924e03" d="M 295.5,258.5 C 296.5,259.167 297.5,259.833 298.5,260.5C 303.032,272.078 308.032,283.578 313.5,295C 317.939,306.819 322.272,318.653 326.5,330.5C 284.828,330.833 243.161,330.5 201.5,329.5C 202.808,325.194 205.308,321.861 209,319.5C 216.141,300.56 223.808,281.894 232,263.5C 234.702,258.921 238.202,255.088 242.5,252C 262.222,239.978 279.888,242.145 295.5,258.5 Z"/></g>
<g><path style="opacity:1" fill="#dea663" d="M 183.5,252.5 C 178.488,259.342 171.822,263.842 163.5,266C 145.445,271.923 128.112,270.256 111.5,261C 109.234,259.574 107.568,257.74 106.5,255.5C 111.582,259.374 117.249,262.208 123.5,264C 145.337,269.307 165.337,265.474 183.5,252.5 Z"/></g>
<g><path style="opacity:1" fill="#e5a05b" d="M 334.5,245.5 C 361.375,270.411 390.375,273.077 421.5,253.5C 407.883,266.501 391.549,271.667 372.5,269C 356.379,266.454 343.713,258.621 334.5,245.5 Z"/></g>
<g><path style="opacity:0.808" fill="#b47c3e" d="M 333.5,348.5 C 334.496,348.414 335.329,348.748 336,349.5C 340.776,360.971 349.276,367.804 361.5,370C 406.833,370.667 452.167,370.667 497.5,370C 508.831,367.688 517.164,361.522 522.5,351.5C 522.5,352.167 522.5,352.833 522.5,353.5C 518.546,364.455 510.879,371.122 499.5,373.5C 452.5,373.5 405.5,373.5 358.5,373.5C 345.923,369.59 337.59,361.257 333.5,348.5 Z"/></g>
<g><path style="opacity:0.968" fill="#b67d3e" d="M 194.5,337.5 C 191.456,354.181 182.456,366.181 167.5,373.5C 119.167,373.5 70.8333,373.5 22.5,373.5C 16.0202,370.751 10.3535,366.751 5.5,361.5C 3.01009,358.188 1.34343,354.522 0.5,350.5C 6.54522,361.039 15.5452,367.539 27.5,370C 72.5,370.667 117.5,370.667 162.5,370C 173.728,367.632 182.228,361.465 188,351.5C 188.852,346.135 191.018,341.468 194.5,337.5 Z"/></g>
</svg>
